<mxfile host="app.diagrams.net" modified="2022-03-19T11:41:43.852Z" agent="5.0 (Windows NT 10.0; Win64; x64) AppleWebKit/537.36 (KHTML, like Gecko) Chrome/99.0.4844.74 Safari/537.36" etag="EKrGAcAsw_1_-NrjFdYL" version="17.1.3" type="github">
  <diagram id="C5RBs43oDa-KdzZeNtuy" name="Page-1">
    <mxGraphModel dx="2130" dy="802" grid="1" gridSize="10" guides="1" tooltips="1" connect="1" arrows="1" fold="1" page="1" pageScale="1" pageWidth="827" pageHeight="1169" math="0" shadow="0">
      <root>
        <mxCell id="WIyWlLk6GJQsqaUBKTNV-0" />
        <mxCell id="WIyWlLk6GJQsqaUBKTNV-1" parent="WIyWlLk6GJQsqaUBKTNV-0" />
        <mxCell id="OCqANHgdrqqB7YlN0qXC-1" value="Start" style="strokeWidth=2;html=1;shape=mxgraph.flowchart.start_2;whiteSpace=wrap;" vertex="1" parent="WIyWlLk6GJQsqaUBKTNV-1">
          <mxGeometry x="340" y="220" width="100" height="100" as="geometry" />
        </mxCell>
        <mxCell id="OCqANHgdrqqB7YlN0qXC-56" value="Yes" style="edgeStyle=orthogonalEdgeStyle;rounded=0;orthogonalLoop=1;jettySize=auto;html=1;exitX=0.5;exitY=1;exitDx=0;exitDy=0;exitPerimeter=0;entryX=0.5;entryY=0;entryDx=0;entryDy=0;entryPerimeter=0;" edge="1" parent="WIyWlLk6GJQsqaUBKTNV-1" source="OCqANHgdrqqB7YlN0qXC-2" target="OCqANHgdrqqB7YlN0qXC-10">
          <mxGeometry relative="1" as="geometry" />
        </mxCell>
        <mxCell id="OCqANHgdrqqB7YlN0qXC-107" value="No" style="edgeStyle=orthogonalEdgeStyle;rounded=0;orthogonalLoop=1;jettySize=auto;html=1;exitX=1;exitY=0.5;exitDx=0;exitDy=0;exitPerimeter=0;entryX=0;entryY=0.5;entryDx=0;entryDy=0;entryPerimeter=0;" edge="1" parent="WIyWlLk6GJQsqaUBKTNV-1" source="OCqANHgdrqqB7YlN0qXC-2" target="OCqANHgdrqqB7YlN0qXC-7">
          <mxGeometry relative="1" as="geometry" />
        </mxCell>
        <mxCell id="OCqANHgdrqqB7YlN0qXC-2" value="Is Restock &lt;br&gt;Hatch closed?" style="strokeWidth=2;html=1;shape=mxgraph.flowchart.decision;whiteSpace=wrap;" vertex="1" parent="WIyWlLk6GJQsqaUBKTNV-1">
          <mxGeometry x="340" y="370" width="100" height="100" as="geometry" />
        </mxCell>
        <mxCell id="OCqANHgdrqqB7YlN0qXC-4" value="" style="endArrow=classic;html=1;rounded=0;exitX=0.5;exitY=1;exitDx=0;exitDy=0;exitPerimeter=0;entryX=0.5;entryY=0;entryDx=0;entryDy=0;entryPerimeter=0;" edge="1" parent="WIyWlLk6GJQsqaUBKTNV-1" source="OCqANHgdrqqB7YlN0qXC-1" target="OCqANHgdrqqB7YlN0qXC-2">
          <mxGeometry width="50" height="50" relative="1" as="geometry">
            <mxPoint x="520" y="170" as="sourcePoint" />
            <mxPoint x="570" y="120" as="targetPoint" />
          </mxGeometry>
        </mxCell>
        <mxCell id="OCqANHgdrqqB7YlN0qXC-24" style="edgeStyle=orthogonalEdgeStyle;rounded=0;orthogonalLoop=1;jettySize=auto;html=1;exitX=0.5;exitY=0;exitDx=0;exitDy=0;exitPerimeter=0;entryX=0.5;entryY=0;entryDx=0;entryDy=0;entryPerimeter=0;" edge="1" parent="WIyWlLk6GJQsqaUBKTNV-1" source="OCqANHgdrqqB7YlN0qXC-7" target="OCqANHgdrqqB7YlN0qXC-2">
          <mxGeometry relative="1" as="geometry">
            <Array as="points">
              <mxPoint x="550" y="330" />
              <mxPoint x="390" y="330" />
            </Array>
          </mxGeometry>
        </mxCell>
        <mxCell id="OCqANHgdrqqB7YlN0qXC-7" value="Display Err0 &quot;Hatch open&quot;" style="strokeWidth=2;html=1;shape=mxgraph.flowchart.display;whiteSpace=wrap;" vertex="1" parent="WIyWlLk6GJQsqaUBKTNV-1">
          <mxGeometry x="490" y="350" width="100" height="60" as="geometry" />
        </mxCell>
        <mxCell id="OCqANHgdrqqB7YlN0qXC-51" value="No" style="edgeStyle=orthogonalEdgeStyle;rounded=0;orthogonalLoop=1;jettySize=auto;html=1;exitX=0.5;exitY=1;exitDx=0;exitDy=0;exitPerimeter=0;entryX=0;entryY=0.5;entryDx=0;entryDy=0;entryPerimeter=0;" edge="1" parent="WIyWlLk6GJQsqaUBKTNV-1" source="OCqANHgdrqqB7YlN0qXC-10" target="OCqANHgdrqqB7YlN0qXC-10">
          <mxGeometry relative="1" as="geometry">
            <mxPoint x="10" y="560" as="targetPoint" />
            <Array as="points">
              <mxPoint x="150" y="630" />
              <mxPoint x="80" y="630" />
              <mxPoint x="80" y="562" />
            </Array>
          </mxGeometry>
        </mxCell>
        <mxCell id="OCqANHgdrqqB7YlN0qXC-52" value="Yes" style="edgeStyle=orthogonalEdgeStyle;rounded=0;orthogonalLoop=1;jettySize=auto;html=1;exitX=1;exitY=0.5;exitDx=0;exitDy=0;exitPerimeter=0;entryX=0;entryY=0.5;entryDx=0;entryDy=0;" edge="1" parent="WIyWlLk6GJQsqaUBKTNV-1" source="OCqANHgdrqqB7YlN0qXC-10" target="OCqANHgdrqqB7YlN0qXC-15">
          <mxGeometry relative="1" as="geometry" />
        </mxCell>
        <mxCell id="OCqANHgdrqqB7YlN0qXC-10" value="Is hand&amp;nbsp;&lt;br&gt;detected?" style="strokeWidth=2;html=1;shape=mxgraph.flowchart.decision;whiteSpace=wrap;" vertex="1" parent="WIyWlLk6GJQsqaUBKTNV-1">
          <mxGeometry x="100" y="512.5" width="100" height="100" as="geometry" />
        </mxCell>
        <mxCell id="OCqANHgdrqqB7YlN0qXC-103" value="" style="edgeStyle=orthogonalEdgeStyle;rounded=0;orthogonalLoop=1;jettySize=auto;html=1;" edge="1" parent="WIyWlLk6GJQsqaUBKTNV-1" source="OCqANHgdrqqB7YlN0qXC-15" target="OCqANHgdrqqB7YlN0qXC-100">
          <mxGeometry relative="1" as="geometry" />
        </mxCell>
        <mxCell id="OCqANHgdrqqB7YlN0qXC-15" value="Deposit mask onto rollers (Spin stepper motor)" style="rounded=1;whiteSpace=wrap;html=1;absoluteArcSize=1;arcSize=14;strokeWidth=2;" vertex="1" parent="WIyWlLk6GJQsqaUBKTNV-1">
          <mxGeometry x="240" y="522.5" width="90" height="80" as="geometry" />
        </mxCell>
        <mxCell id="OCqANHgdrqqB7YlN0qXC-85" style="edgeStyle=orthogonalEdgeStyle;rounded=0;orthogonalLoop=1;jettySize=auto;html=1;exitX=0;exitY=0.5;exitDx=0;exitDy=0;entryX=1;entryY=0.5;entryDx=0;entryDy=0;" edge="1" parent="WIyWlLk6GJQsqaUBKTNV-1" source="OCqANHgdrqqB7YlN0qXC-16" target="OCqANHgdrqqB7YlN0qXC-82">
          <mxGeometry relative="1" as="geometry" />
        </mxCell>
        <mxCell id="OCqANHgdrqqB7YlN0qXC-16" value="Switch on Roller Motor" style="rounded=1;whiteSpace=wrap;html=1;absoluteArcSize=1;arcSize=14;strokeWidth=2;" vertex="1" parent="WIyWlLk6GJQsqaUBKTNV-1">
          <mxGeometry x="687.5" y="667.5" width="95" height="85" as="geometry" />
        </mxCell>
        <mxCell id="OCqANHgdrqqB7YlN0qXC-74" value="No" style="edgeStyle=orthogonalEdgeStyle;rounded=0;orthogonalLoop=1;jettySize=auto;html=1;exitX=0.5;exitY=1;exitDx=0;exitDy=0;exitPerimeter=0;entryX=0;entryY=0.5;entryDx=0;entryDy=0;entryPerimeter=0;" edge="1" parent="WIyWlLk6GJQsqaUBKTNV-1" source="OCqANHgdrqqB7YlN0qXC-18" target="OCqANHgdrqqB7YlN0qXC-72">
          <mxGeometry x="0.4335" relative="1" as="geometry">
            <mxPoint as="offset" />
          </mxGeometry>
        </mxCell>
        <mxCell id="OCqANHgdrqqB7YlN0qXC-78" value="Yes" style="edgeStyle=orthogonalEdgeStyle;rounded=0;orthogonalLoop=1;jettySize=auto;html=1;exitX=0;exitY=0.5;exitDx=0;exitDy=0;exitPerimeter=0;entryX=1;entryY=0.5;entryDx=0;entryDy=0;" edge="1" parent="WIyWlLk6GJQsqaUBKTNV-1" source="OCqANHgdrqqB7YlN0qXC-18" target="OCqANHgdrqqB7YlN0qXC-26">
          <mxGeometry relative="1" as="geometry">
            <mxPoint x="180" y="709.9736842105265" as="targetPoint" />
          </mxGeometry>
        </mxCell>
        <mxCell id="OCqANHgdrqqB7YlN0qXC-18" value="Load state &lt;br&gt;rising edge detected?" style="strokeWidth=2;html=1;shape=mxgraph.flowchart.decision;whiteSpace=wrap;" vertex="1" parent="WIyWlLk6GJQsqaUBKTNV-1">
          <mxGeometry x="314" y="660" width="100" height="100" as="geometry" />
        </mxCell>
        <mxCell id="OCqANHgdrqqB7YlN0qXC-88" value="" style="edgeStyle=orthogonalEdgeStyle;rounded=0;orthogonalLoop=1;jettySize=auto;html=1;" edge="1" parent="WIyWlLk6GJQsqaUBKTNV-1" source="OCqANHgdrqqB7YlN0qXC-26" target="OCqANHgdrqqB7YlN0qXC-87">
          <mxGeometry relative="1" as="geometry" />
        </mxCell>
        <mxCell id="OCqANHgdrqqB7YlN0qXC-26" value="Stop Roller motor" style="rounded=1;whiteSpace=wrap;html=1;absoluteArcSize=1;arcSize=14;strokeWidth=2;" vertex="1" parent="WIyWlLk6GJQsqaUBKTNV-1">
          <mxGeometry x="177.5" y="670" width="82.5" height="80" as="geometry" />
        </mxCell>
        <mxCell id="OCqANHgdrqqB7YlN0qXC-67" style="edgeStyle=orthogonalEdgeStyle;rounded=0;orthogonalLoop=1;jettySize=auto;html=1;exitX=0.5;exitY=1;exitDx=0;exitDy=0;entryX=0.5;entryY=0;entryDx=0;entryDy=0;" edge="1" parent="WIyWlLk6GJQsqaUBKTNV-1" source="OCqANHgdrqqB7YlN0qXC-35" target="OCqANHgdrqqB7YlN0qXC-16">
          <mxGeometry relative="1" as="geometry" />
        </mxCell>
        <mxCell id="OCqANHgdrqqB7YlN0qXC-35" value="&lt;span style=&quot;color: rgb(0 , 0 , 0) ; font-family: &amp;#34;helvetica&amp;#34; ; font-size: 12px ; font-style: normal ; font-weight: 400 ; letter-spacing: normal ; text-align: center ; text-indent: 0px ; text-transform: none ; word-spacing: 0px ; background-color: rgb(248 , 249 , 250) ; display: inline ; float: none&quot;&gt;Actuate sliding door servo to open position&lt;/span&gt;" style="rounded=1;whiteSpace=wrap;html=1;absoluteArcSize=1;arcSize=14;strokeWidth=2;" vertex="1" parent="WIyWlLk6GJQsqaUBKTNV-1">
          <mxGeometry x="690" y="517.5" width="90" height="90" as="geometry" />
        </mxCell>
        <mxCell id="OCqANHgdrqqB7YlN0qXC-91" value="No" style="edgeStyle=orthogonalEdgeStyle;rounded=0;orthogonalLoop=1;jettySize=auto;html=1;exitX=1;exitY=0.5;exitDx=0;exitDy=0;exitPerimeter=0;entryX=0;entryY=0.5;entryDx=0;entryDy=0;entryPerimeter=0;" edge="1" parent="WIyWlLk6GJQsqaUBKTNV-1" source="OCqANHgdrqqB7YlN0qXC-40" target="OCqANHgdrqqB7YlN0qXC-90">
          <mxGeometry relative="1" as="geometry" />
        </mxCell>
        <mxCell id="OCqANHgdrqqB7YlN0qXC-98" value="Yes" style="edgeStyle=orthogonalEdgeStyle;rounded=0;orthogonalLoop=1;jettySize=auto;html=1;exitX=0.5;exitY=1;exitDx=0;exitDy=0;exitPerimeter=0;entryX=0;entryY=0.5;entryDx=0;entryDy=0;" edge="1" parent="WIyWlLk6GJQsqaUBKTNV-1" source="OCqANHgdrqqB7YlN0qXC-40" target="OCqANHgdrqqB7YlN0qXC-44">
          <mxGeometry relative="1" as="geometry">
            <Array as="points">
              <mxPoint x="95" y="960" />
            </Array>
          </mxGeometry>
        </mxCell>
        <mxCell id="OCqANHgdrqqB7YlN0qXC-40" value="Dispense &lt;br&gt;state sensor HIGH?" style="strokeWidth=2;html=1;shape=mxgraph.flowchart.decision;whiteSpace=wrap;" vertex="1" parent="WIyWlLk6GJQsqaUBKTNV-1">
          <mxGeometry x="45" y="850" width="100" height="100" as="geometry" />
        </mxCell>
        <mxCell id="OCqANHgdrqqB7YlN0qXC-99" style="edgeStyle=orthogonalEdgeStyle;rounded=0;orthogonalLoop=1;jettySize=auto;html=1;exitX=1;exitY=0.5;exitDx=0;exitDy=0;entryX=0.5;entryY=0;entryDx=0;entryDy=0;entryPerimeter=0;" edge="1" parent="WIyWlLk6GJQsqaUBKTNV-1" source="OCqANHgdrqqB7YlN0qXC-44" target="OCqANHgdrqqB7YlN0qXC-2">
          <mxGeometry relative="1" as="geometry">
            <Array as="points">
              <mxPoint x="810" y="960" />
              <mxPoint x="810" y="330" />
              <mxPoint x="390" y="330" />
            </Array>
          </mxGeometry>
        </mxCell>
        <mxCell id="OCqANHgdrqqB7YlN0qXC-44" value="Actuate sliding door servo to close position" style="rounded=1;whiteSpace=wrap;html=1;absoluteArcSize=1;arcSize=14;strokeWidth=2;" vertex="1" parent="WIyWlLk6GJQsqaUBKTNV-1">
          <mxGeometry x="660" y="920" width="100" height="80" as="geometry" />
        </mxCell>
        <mxCell id="OCqANHgdrqqB7YlN0qXC-66" value="Yes" style="edgeStyle=orthogonalEdgeStyle;rounded=0;orthogonalLoop=1;jettySize=auto;html=1;exitX=1;exitY=0.5;exitDx=0;exitDy=0;exitPerimeter=0;entryX=0;entryY=0.5;entryDx=0;entryDy=0;" edge="1" parent="WIyWlLk6GJQsqaUBKTNV-1" source="OCqANHgdrqqB7YlN0qXC-60" target="OCqANHgdrqqB7YlN0qXC-35">
          <mxGeometry x="0.5385" relative="1" as="geometry">
            <mxPoint as="offset" />
          </mxGeometry>
        </mxCell>
        <mxCell id="OCqANHgdrqqB7YlN0qXC-106" value="No" style="edgeStyle=orthogonalEdgeStyle;rounded=0;orthogonalLoop=1;jettySize=auto;html=1;exitX=1;exitY=0.5;exitDx=0;exitDy=0;exitPerimeter=0;entryX=0.5;entryY=1;entryDx=0;entryDy=0;entryPerimeter=0;" edge="1" parent="WIyWlLk6GJQsqaUBKTNV-1" source="OCqANHgdrqqB7YlN0qXC-60" target="OCqANHgdrqqB7YlN0qXC-105">
          <mxGeometry x="0.5103" relative="1" as="geometry">
            <mxPoint as="offset" />
          </mxGeometry>
        </mxCell>
        <mxCell id="OCqANHgdrqqB7YlN0qXC-60" value="Load state &lt;br&gt;sensor falling edge &lt;br&gt;detected?" style="strokeWidth=2;html=1;shape=mxgraph.flowchart.decision;whiteSpace=wrap;" vertex="1" parent="WIyWlLk6GJQsqaUBKTNV-1">
          <mxGeometry x="450" y="508.75" width="110" height="107.5" as="geometry" />
        </mxCell>
        <mxCell id="OCqANHgdrqqB7YlN0qXC-111" style="edgeStyle=orthogonalEdgeStyle;rounded=0;orthogonalLoop=1;jettySize=auto;html=1;exitX=0;exitY=0.5;exitDx=0;exitDy=0;exitPerimeter=0;entryX=0.5;entryY=0;entryDx=0;entryDy=0;entryPerimeter=0;" edge="1" parent="WIyWlLk6GJQsqaUBKTNV-1" source="OCqANHgdrqqB7YlN0qXC-63" target="OCqANHgdrqqB7YlN0qXC-60">
          <mxGeometry relative="1" as="geometry">
            <Array as="points">
              <mxPoint x="620" y="390" />
              <mxPoint x="620" y="420" />
              <mxPoint x="505" y="420" />
            </Array>
          </mxGeometry>
        </mxCell>
        <mxCell id="OCqANHgdrqqB7YlN0qXC-63" value="Display Err1 &quot;Mask Jammed&quot;" style="strokeWidth=2;html=1;shape=mxgraph.flowchart.display;whiteSpace=wrap;" vertex="1" parent="WIyWlLk6GJQsqaUBKTNV-1">
          <mxGeometry x="682.5" y="360" width="100" height="60" as="geometry" />
        </mxCell>
        <mxCell id="OCqANHgdrqqB7YlN0qXC-75" value="No" style="edgeStyle=orthogonalEdgeStyle;rounded=0;orthogonalLoop=1;jettySize=auto;html=1;exitX=1;exitY=0.5;exitDx=0;exitDy=0;exitPerimeter=0;entryX=1;entryY=0.5;entryDx=0;entryDy=0;entryPerimeter=0;" edge="1" parent="WIyWlLk6GJQsqaUBKTNV-1" source="OCqANHgdrqqB7YlN0qXC-72" target="OCqANHgdrqqB7YlN0qXC-18">
          <mxGeometry x="-0.4919" relative="1" as="geometry">
            <mxPoint as="offset" />
          </mxGeometry>
        </mxCell>
        <mxCell id="OCqANHgdrqqB7YlN0qXC-80" value="Yes" style="edgeStyle=orthogonalEdgeStyle;rounded=0;orthogonalLoop=1;jettySize=auto;html=1;exitX=1;exitY=0.5;exitDx=0;exitDy=0;exitPerimeter=0;entryX=0;entryY=0.5;entryDx=0;entryDy=0;entryPerimeter=0;" edge="1" parent="WIyWlLk6GJQsqaUBKTNV-1" source="OCqANHgdrqqB7YlN0qXC-72" target="OCqANHgdrqqB7YlN0qXC-79">
          <mxGeometry relative="1" as="geometry" />
        </mxCell>
        <mxCell id="OCqANHgdrqqB7YlN0qXC-72" value="Roll_timer &lt;br&gt;&amp;gt;2 sec?" style="strokeWidth=2;html=1;shape=mxgraph.flowchart.decision;whiteSpace=wrap;" vertex="1" parent="WIyWlLk6GJQsqaUBKTNV-1">
          <mxGeometry x="430" y="750" width="100" height="100" as="geometry" />
        </mxCell>
        <mxCell id="OCqANHgdrqqB7YlN0qXC-81" style="edgeStyle=orthogonalEdgeStyle;rounded=0;orthogonalLoop=1;jettySize=auto;html=1;exitX=0.5;exitY=1;exitDx=0;exitDy=0;exitPerimeter=0;entryX=0.5;entryY=1;entryDx=0;entryDy=0;entryPerimeter=0;" edge="1" parent="WIyWlLk6GJQsqaUBKTNV-1" source="OCqANHgdrqqB7YlN0qXC-79" target="OCqANHgdrqqB7YlN0qXC-72">
          <mxGeometry relative="1" as="geometry" />
        </mxCell>
        <mxCell id="OCqANHgdrqqB7YlN0qXC-79" value="Display Err2 &quot;Roller malfunction&quot;" style="strokeWidth=2;html=1;shape=mxgraph.flowchart.display;whiteSpace=wrap;" vertex="1" parent="WIyWlLk6GJQsqaUBKTNV-1">
          <mxGeometry x="610" y="770" width="100" height="60" as="geometry" />
        </mxCell>
        <mxCell id="OCqANHgdrqqB7YlN0qXC-83" style="edgeStyle=orthogonalEdgeStyle;rounded=0;orthogonalLoop=1;jettySize=auto;html=1;exitX=0;exitY=0.5;exitDx=0;exitDy=0;entryX=1;entryY=0.5;entryDx=0;entryDy=0;entryPerimeter=0;" edge="1" parent="WIyWlLk6GJQsqaUBKTNV-1" source="OCqANHgdrqqB7YlN0qXC-82" target="OCqANHgdrqqB7YlN0qXC-18">
          <mxGeometry relative="1" as="geometry" />
        </mxCell>
        <mxCell id="OCqANHgdrqqB7YlN0qXC-82" value="Start Roll_timer" style="rounded=1;whiteSpace=wrap;html=1;absoluteArcSize=1;arcSize=14;strokeWidth=2;" vertex="1" parent="WIyWlLk6GJQsqaUBKTNV-1">
          <mxGeometry x="560" y="680" width="100" height="60" as="geometry" />
        </mxCell>
        <mxCell id="OCqANHgdrqqB7YlN0qXC-89" value="" style="edgeStyle=orthogonalEdgeStyle;rounded=0;orthogonalLoop=1;jettySize=auto;html=1;" edge="1" parent="WIyWlLk6GJQsqaUBKTNV-1" source="OCqANHgdrqqB7YlN0qXC-87" target="OCqANHgdrqqB7YlN0qXC-40">
          <mxGeometry relative="1" as="geometry" />
        </mxCell>
        <mxCell id="OCqANHgdrqqB7YlN0qXC-87" value="Start dispense_timer" style="rounded=1;whiteSpace=wrap;html=1;absoluteArcSize=1;arcSize=14;strokeWidth=2;" vertex="1" parent="WIyWlLk6GJQsqaUBKTNV-1">
          <mxGeometry x="50" y="670" width="90" height="80" as="geometry" />
        </mxCell>
        <mxCell id="OCqANHgdrqqB7YlN0qXC-92" value="No" style="edgeStyle=orthogonalEdgeStyle;rounded=0;orthogonalLoop=1;jettySize=auto;html=1;exitX=0.5;exitY=0;exitDx=0;exitDy=0;exitPerimeter=0;entryX=0.5;entryY=0;entryDx=0;entryDy=0;entryPerimeter=0;" edge="1" parent="WIyWlLk6GJQsqaUBKTNV-1" source="OCqANHgdrqqB7YlN0qXC-90" target="OCqANHgdrqqB7YlN0qXC-40">
          <mxGeometry relative="1" as="geometry" />
        </mxCell>
        <mxCell id="OCqANHgdrqqB7YlN0qXC-94" value="Yes" style="edgeStyle=orthogonalEdgeStyle;rounded=0;orthogonalLoop=1;jettySize=auto;html=1;exitX=1;exitY=0.5;exitDx=0;exitDy=0;exitPerimeter=0;entryX=0.5;entryY=1;entryDx=0;entryDy=0;entryPerimeter=0;" edge="1" parent="WIyWlLk6GJQsqaUBKTNV-1" source="OCqANHgdrqqB7YlN0qXC-90" target="OCqANHgdrqqB7YlN0qXC-93">
          <mxGeometry relative="1" as="geometry" />
        </mxCell>
        <mxCell id="OCqANHgdrqqB7YlN0qXC-90" value="dispense_timer&lt;br&gt;&amp;gt;2 sec?" style="strokeWidth=2;html=1;shape=mxgraph.flowchart.decision;whiteSpace=wrap;" vertex="1" parent="WIyWlLk6GJQsqaUBKTNV-1">
          <mxGeometry x="190" y="850" width="100" height="100" as="geometry" />
        </mxCell>
        <mxCell id="OCqANHgdrqqB7YlN0qXC-96" style="edgeStyle=orthogonalEdgeStyle;rounded=0;orthogonalLoop=1;jettySize=auto;html=1;exitX=0.5;exitY=0;exitDx=0;exitDy=0;exitPerimeter=0;entryX=0.5;entryY=0;entryDx=0;entryDy=0;entryPerimeter=0;" edge="1" parent="WIyWlLk6GJQsqaUBKTNV-1" source="OCqANHgdrqqB7YlN0qXC-93" target="OCqANHgdrqqB7YlN0qXC-40">
          <mxGeometry relative="1" as="geometry">
            <Array as="points">
              <mxPoint x="364" y="810" />
              <mxPoint x="95" y="810" />
            </Array>
          </mxGeometry>
        </mxCell>
        <mxCell id="OCqANHgdrqqB7YlN0qXC-93" value="Display Err2 &lt;br&gt;&quot;Mask not taken&quot;" style="strokeWidth=2;html=1;shape=mxgraph.flowchart.display;whiteSpace=wrap;" vertex="1" parent="WIyWlLk6GJQsqaUBKTNV-1">
          <mxGeometry x="313.5" y="820" width="106.5" height="60" as="geometry" />
        </mxCell>
        <mxCell id="OCqANHgdrqqB7YlN0qXC-108" value="" style="edgeStyle=orthogonalEdgeStyle;rounded=0;orthogonalLoop=1;jettySize=auto;html=1;" edge="1" parent="WIyWlLk6GJQsqaUBKTNV-1" source="OCqANHgdrqqB7YlN0qXC-100" target="OCqANHgdrqqB7YlN0qXC-60">
          <mxGeometry relative="1" as="geometry" />
        </mxCell>
        <mxCell id="OCqANHgdrqqB7YlN0qXC-100" value="Start fall_timer" style="rounded=1;whiteSpace=wrap;html=1;absoluteArcSize=1;arcSize=14;strokeWidth=2;" vertex="1" parent="WIyWlLk6GJQsqaUBKTNV-1">
          <mxGeometry x="355" y="521.25" width="70" height="82.5" as="geometry" />
        </mxCell>
        <mxCell id="OCqANHgdrqqB7YlN0qXC-109" value="No" style="edgeStyle=orthogonalEdgeStyle;rounded=0;orthogonalLoop=1;jettySize=auto;html=1;exitX=0;exitY=0.5;exitDx=0;exitDy=0;exitPerimeter=0;entryX=0.5;entryY=0;entryDx=0;entryDy=0;entryPerimeter=0;" edge="1" parent="WIyWlLk6GJQsqaUBKTNV-1" source="OCqANHgdrqqB7YlN0qXC-105" target="OCqANHgdrqqB7YlN0qXC-60">
          <mxGeometry x="-0.2521" relative="1" as="geometry">
            <mxPoint as="offset" />
          </mxGeometry>
        </mxCell>
        <mxCell id="OCqANHgdrqqB7YlN0qXC-110" value="Yes" style="edgeStyle=orthogonalEdgeStyle;rounded=0;orthogonalLoop=1;jettySize=auto;html=1;exitX=1;exitY=0.5;exitDx=0;exitDy=0;exitPerimeter=0;entryX=0.754;entryY=1.002;entryDx=0;entryDy=0;entryPerimeter=0;" edge="1" parent="WIyWlLk6GJQsqaUBKTNV-1" source="OCqANHgdrqqB7YlN0qXC-105" target="OCqANHgdrqqB7YlN0qXC-63">
          <mxGeometry relative="1" as="geometry" />
        </mxCell>
        <mxCell id="OCqANHgdrqqB7YlN0qXC-105" value="fall_timer&amp;nbsp;&lt;br&gt;&amp;gt;0.5?" style="strokeWidth=2;html=1;shape=mxgraph.flowchart.decision;whiteSpace=wrap;" vertex="1" parent="WIyWlLk6GJQsqaUBKTNV-1">
          <mxGeometry x="590" y="432.5" width="80" height="80" as="geometry" />
        </mxCell>
      </root>
    </mxGraphModel>
  </diagram>
</mxfile>
